pose16
version=1
nRows=4
nColumns=213
inDegrees=yes
endheader
time	platform_rx	platform_ry	platform_rz	platform_ty	pelvis_tilt	pelvis_list	pelvis_rotation	pelvis_tx	pelvis_ty	pelvis_tz	hip_flexion_r	hip_adduction_r	hip_rotation_r	knee_angle_r	knee_angle_r_beta	ankle_angle_r	subtalar_angle_r	mtp_angle_r	hip_flexion_l	hip_adduction_l	hip_rotation_l	knee_angle_l	knee_angle_l_beta	ankle_angle_l	subtalar_angle_l	mtp_angle_l	lumbar_extension	lumbar_bending	lumbar_rotation	arm_flex_r	arm_add_r	arm_rot_r	elbow_flex_r	pro_sup_r	wrist_flex_r	wrist_dev_r	arm_flex_l	arm_add_l	arm_rot_l	elbow_flex_l	pro_sup_l	wrist_flex_l	wrist_dev_l	platform_rx_u	platform_ry_u	platform_rz_u	platform_ty_u	pelvis_tilt_u	pelvis_list_u	pelvis_rotation_u	pelvis_tx_u	pelvis_ty_u	pelvis_tz_u	hip_flexion_r_u	hip_adduction_r_u	hip_rotation_r_u	knee_angle_r_u	knee_angle_r_beta_u	ankle_angle_r_u	subtalar_angle_r_u	mtp_angle_r_u	hip_flexion_l_u	hip_adduction_l_u	hip_rotation_l_u	knee_angle_l_u	knee_angle_l_beta_u	ankle_angle_l_u	subtalar_angle_l_u	mtp_angle_l_u	lumbar_extension_u	lumbar_bending_u	lumbar_rotation_u	arm_flex_r_u	arm_add_r_u	arm_rot_r_u	elbow_flex_r_u	pro_sup_r_u	wrist_flex_r_u	wrist_dev_r_u	arm_flex_l_u	arm_add_l_u	arm_rot_l_u	elbow_flex_l_u	pro_sup_l_u	wrist_flex_l_u	wrist_dev_l_u	addbrev_r.activation	addlong_r.activation	addlong_r.fiber_length	addmagDist_r.activation	addmagIsch_r.activation	addmagIsch_r.fiber_length	addmagMid_r.activation	addmagProx_r.activation	bflh_r.activation	bflh_r.fiber_length	bfsh_r.activation	edl_r.activation	edl_r.fiber_length	ehl_r.activation	ehl_r.fiber_length	fdl_r.activation	fdl_r.fiber_length	fhl_r.activation	fhl_r.fiber_length	gaslat_r.activation	gaslat_r.fiber_length	gasmed_r.activation	gasmed_r.fiber_length	glmax1_r.activation	glmax2_r.activation	glmax3_r.activation	glmed1_r.activation	glmed2_r.activation	glmed3_r.activation	glmin1_r.activation	glmin2_r.activation	glmin3_r.activation	glmin3_r.fiber_length	grac_r.activation	iliacus_r.activation	perbrev_r.activation	perbrev_r.fiber_length	perlong_r.activation	perlong_r.fiber_length	piri_r.activation	piri_r.fiber_length	psoas_r.activation	recfem_r.activation	recfem_r.fiber_length	sart_r.activation	semimem_r.activation	semimem_r.fiber_length	semiten_r.activation	semiten_r.fiber_length	soleus_r.activation	soleus_r.fiber_length	tfl_r.activation	tfl_r.fiber_length	tibant_r.activation	tibant_r.fiber_length	tibpost_r.activation	tibpost_r.fiber_length	vasint_r.activation	vasint_r.fiber_length	vaslat_r.activation	vaslat_r.fiber_length	vasmed_r.activation	vasmed_r.fiber_length	addbrev_l.activation	addlong_l.activation	addlong_l.fiber_length	addmagDist_l.activation	addmagIsch_l.activation	addmagIsch_l.fiber_length	addmagMid_l.activation	addmagProx_l.activation	bflh_l.activation	bflh_l.fiber_length	bfsh_l.activation	edl_l.activation	edl_l.fiber_length	ehl_l.activation	ehl_l.fiber_length	fdl_l.activation	fdl_l.fiber_length	fhl_l.activation	fhl_l.fiber_length	gaslat_l.activation	gaslat_l.fiber_length	gasmed_l.activation	gasmed_l.fiber_length	glmax1_l.activation	glmax2_l.activation	glmax3_l.activation	glmed1_l.activation	glmed2_l.activation	glmed3_l.activation	glmin1_l.activation	glmin2_l.activation	glmin3_l.activation	glmin3_l.fiber_length	grac_l.activation	iliacus_l.activation	perbrev_l.activation	perbrev_l.fiber_length	perlong_l.activation	perlong_l.fiber_length	piri_l.activation	piri_l.fiber_length	psoas_l.activation	recfem_l.activation	recfem_l.fiber_length	sart_l.activation	semimem_l.activation	semimem_l.fiber_length	semiten_l.activation	semiten_l.fiber_length	soleus_l.activation	soleus_l.fiber_length	tfl_l.activation	tfl_l.fiber_length	tibant_l.activation	tibant_l.fiber_length	tibpost_l.activation	tibpost_l.fiber_length	vasint_l.activation	vasint_l.fiber_length	vaslat_l.activation	vaslat_l.fiber_length	vasmed_l.activation	vasmed_l.fiber_length
      0.02331153	     20.00000000	      0.00000000	      0.00000000	      0.25000000	    -18.51765692	     -0.01366366	     -0.00357538	      0.01618240	      0.71459836	      0.00007267	     69.49239248	    -18.38990961	    -10.30322748	     77.03822055	     77.03822055	     -3.51984167	     -3.63704209	      0.00000000	     69.49725671	    -18.49771564	    -10.15414860	     77.04028721	     77.04028721	     -2.87639725	      0.00000000	      0.00000000	     -9.19047350	      0.01031570	      0.01936534	     90.78782679	     -0.07176354	     89.80340234	      0.33665517	      0.10609041	      0.00000000	      0.00000000	     90.78996995	     -0.07500245	     89.80744851	      0.34029809	      0.10705698	      0.00000000	      0.00000000	     -0.00000000	      0.00000000	      0.00000000	     -0.00000000	    630.76874941	     -0.11713241	     -0.03668344	      0.18319154	      1.01645507	      0.00177115	   -804.75950390	    -22.87371432	    -44.72368959	   -275.95960591	   -275.95960591	  -1722.78966749	    -87.88019729	      0.00000000	   -804.71984860	    -25.83600716	    -44.29466964	   -277.52943678	   -277.52943678	  -1723.41882277	      0.00000000	      0.00000000	   -770.93060657	     -0.14642706	      0.20129074	    148.86057035	     -6.51310791	     -4.12182039	     18.37319827	      1.38330796	     -0.00000000	      0.00000000	    149.00417053	     -6.72640157	     -3.85023793	     18.61688806	      1.44544422	     -0.00000000	      0.00000000	      0.01000000	      0.01000000	      0.09785490	      0.01000000	      0.01000000	      0.20139944	      0.01000000	      0.01000000	      0.01000000	      0.11590530	      0.01000000	      0.01000000	      0.06980441	      0.01000000	      0.07984732	      0.01000000	      0.04631282	      0.01000000	      0.05303113	      0.01000000	      0.05504075	      0.01000000	      0.04535876	      0.01000000	      0.01000000	      0.01000000	      0.01000000	      0.01000000	      0.01000000	      0.01000000	      0.01000000	      0.01000000	      0.04445576	      0.01000000	      0.01000000	      0.01000000	      0.04690951	      0.01000000	      0.05278489	      0.01000000	      0.02917882	      0.01000000	      0.01000000	      0.06140930	      0.01000000	      0.01000000	      0.07560545	      0.01000000	      0.22529940	      0.01000000	      0.04757356	      0.01000000	      0.04241572	      0.01000000	      0.06878205	      0.01000000	      0.04003914	      0.01000000	      0.12972490	      0.01000000	      0.12684589	      0.01000000	      0.12471309	      0.01000000	      0.01000000	      0.09798752	      0.01000000	      0.01000000	      0.20143922	      0.01000000	      0.01000000	      0.01000000	      0.11592433	      0.01000000	      0.01000000	      0.07030919	      0.01000000	      0.07941696	      0.01000000	      0.04563004	      0.01000000	      0.05280990	      0.01000000	      0.05504374	      0.01000000	      0.04536454	      0.01000000	      0.01000000	      0.01000000	      0.01000000	      0.01000000	      0.01000000	      0.01000000	      0.01000000	      0.01000000	      0.04433689	      0.01000000	      0.01000000	      0.01000000	      0.04841212	      0.01000000	      0.05408372	      0.01000000	      0.02910350	      0.01000000	      0.01000000	      0.06138949	      0.01000000	      0.01000000	      0.07561386	      0.01000000	      0.22532503	      0.01000000	      0.04765424	      0.01000000	      0.04223511	      0.01000000	      0.06777142	      0.01000000	      0.03928533	      0.01000000	      0.12972594	      0.01000000	      0.12684685	      0.01000000	      0.12471401
      0.02377683	     20.00000000	      0.00000000	      0.00000000	      0.25000000	    -18.22144337	     -0.01370609	     -0.00358149	      0.01626825	      0.71507628	      0.00007346	     69.11386830	    -18.40056509	    -10.32450058	     76.90787947	     76.90787947	     -4.31974272	     -3.67571791	      0.00000000	     69.11874059	    -18.50970246	    -10.17536989	     76.90919502	     76.90919502	     -3.67716921	      0.00000000	      0.00000000	     -9.55238273	      0.01023651	      0.01944702	     90.85769585	     -0.07483109	     89.80144933	      0.34530878	      0.10681063	      0.00000000	      0.00000000	     90.85990595	     -0.07816936	     89.80562217	      0.34906530	      0.10780609	      0.00000000	      0.00000000	     -0.00000000	      0.00000000	      0.00000000	     -0.00000000	    642.44016208	     -0.06532084	      0.01013167	      0.18579963	      1.03776857	      0.00162364	   -822.25552246	    -22.92346008	    -46.72166804	   -284.30342550	   -284.30342550	  -1715.47463630	    -78.37209629	      0.00000000	   -822.26053334	    -25.68454553	    -46.92743304	   -285.96158481	   -285.96158481	  -1718.58943370	      0.00000000	      0.00000000	   -784.65270018	     -0.19374099	      0.14994552	    151.45550699	     -6.67241313	     -4.27338120	     18.82350475	      1.71493865	     -0.00000000	      0.00000000	    151.59965598	     -6.88622537	     -4.00048597	     19.06810320	      1.77699894	     -0.00000000	      0.00000000	      0.01000000	      0.01000000	      0.09790448	      0.01000000	      0.01000000	      0.20122142	      0.01000000	      0.01000000	      0.01000000	      0.11568934	      0.01000000	      0.01000000	      0.07027887	      0.01000000	      0.08034371	      0.01000000	      0.04624406	      0.01000000	      0.05295382	      0.01000000	      0.05495518	      0.01000000	      0.04528581	      0.01000000	      0.01000000	      0.01000000	      0.01000000	      0.01000000	      0.01000000	      0.01000000	      0.01000000	      0.01000000	      0.04436863	      0.01000000	      0.01000000	      0.01000000	      0.04682231	      0.01000000	      0.05267172	      0.01000000	      0.02907802	      0.01000000	      0.01000000	      0.06162608	      0.01000000	      0.01000000	      0.07543340	      0.01000000	      0.22505931	      0.01000000	      0.04732154	      0.01000000	      0.04279598	      0.01000000	      0.06936495	      0.01000000	      0.03995293	      0.01000000	      0.12967139	      0.01000000	      0.12679928	      0.01000000	      0.12466631	      0.01000000	      0.01000000	      0.09803879	      0.01000000	      0.01000000	      0.20126111	      0.01000000	      0.01000000	      0.01000000	      0.11570920	      0.01000000	      0.01000000	      0.07078593	      0.01000000	      0.07990875	      0.01000000	      0.04555611	      0.01000000	      0.05273274	      0.01000000	      0.05495816	      0.01000000	      0.04529158	      0.01000000	      0.01000000	      0.01000000	      0.01000000	      0.01000000	      0.01000000	      0.01000000	      0.01000000	      0.01000000	      0.04424896	      0.01000000	      0.01000000	      0.01000000	      0.04833294	      0.01000000	      0.05397640	      0.01000000	      0.02900213	      0.01000000	      0.01000000	      0.06160546	      0.01000000	      0.01000000	      0.07544256	      0.01000000	      0.22508613	      0.01000000	      0.04739466	      0.01000000	      0.04261391	      0.01000000	      0.06834967	      0.01000000	      0.03919487	      0.01000000	      0.12967214	      0.01000000	      0.12679997	      0.01000000	      0.12466697
      0.02424213	     20.00000000	      0.00000000	      0.00000000	      0.25000000	    -17.91983106	     -0.01372457	     -0.00356618	      0.01635528	      0.71556408	      0.00007418	     68.72722743	    -18.41123894	    -10.34671215	     76.77363889	     76.77363889	     -5.11627183	     -3.70998478	      0.00000000	     68.73208714	    -18.52161514	    -10.19782409	     76.77416291	     76.77416291	     -4.47572914	      0.00000000	      0.00000000	     -9.92063225	      0.01013563	      0.01950498	     90.92876378	     -0.07797292	     89.79942517	      0.35417243	      0.10768853	      0.00000000	      0.00000000	     90.93104108	     -0.08141080	     89.80372531	      0.35804299	      0.10871285	      0.00000000	      0.00000000	     -0.00000000	      0.00000000	      0.00000000	     -0.00000000	    653.97010963	     -0.01425590	      0.05553927	      0.18824652	      1.05895430	      0.00147982	   -839.64241830	    -22.95282888	    -48.75721868	   -292.72017065	   -292.72017065	  -1708.28686280	    -68.92265792	      0.00000000	   -839.69109304	    -25.51727805	    -49.59384442	   -294.46392703	   -294.46392703	  -1713.91105760	      0.00000000	      0.00000000	   -798.17792748	     -0.23957993	      0.09922229	    154.01256330	     -6.83237733	     -4.42761318	     19.27589407	      2.06103349	     -0.00000000	      0.00000000	    154.15729270	     -7.04674905	     -4.15332969	     19.52146077	      2.12301103	     -0.00000000	     -0.00000000	      0.01000000	      0.01000000	      0.09795696	      0.01000000	      0.01000000	      0.20086635	      0.01000000	      0.01000000	      0.01000000	      0.11546781	      0.01000000	      0.01000000	      0.07074278	      0.01000000	      0.08083652	      0.01000000	      0.04617385	      0.01000000	      0.05287661	      0.01000000	      0.05486964	      0.01000000	      0.04521289	      0.01000000	      0.01000000	      0.01000000	      0.01000000	      0.01000000	      0.01000000	      0.01000000	      0.01000000	      0.01000000	      0.04427932	      0.01000000	      0.01000000	      0.01000000	      0.04673722	      0.01000000	      0.05256140	      0.01000000	      0.02897489	      0.01000000	      0.01000000	      0.06184763	      0.01000000	      0.01000000	      0.07525747	      0.01000000	      0.22481389	      0.01000000	      0.04709292	      0.01000000	      0.04318389	      0.01000000	      0.06993308	      0.01000000	      0.03986532	      0.01000000	      0.12961613	      0.01000000	      0.12675110	      0.01000000	      0.12461798	      0.01000000	      0.01000000	      0.09809286	      0.01000000	      0.01000000	      0.20090687	      0.01000000	      0.01000000	      0.01000000	      0.11548850	      0.01000000	      0.01000000	      0.07124886	      0.01000000	      0.08039778	      0.01000000	      0.04548293	      0.01000000	      0.05265559	      0.01000000	      0.05487262	      0.01000000	      0.04521866	      0.01000000	      0.01000000	      0.01000000	      0.01000000	      0.01000000	      0.01000000	      0.01000000	      0.01000000	      0.01000000	      0.04415902	      0.01000000	      0.01000000	      0.01000000	      0.04825328	      0.01000000	      0.05386894	      0.01000000	      0.02889855	      0.01000000	      0.01000000	      0.06182620	      0.01000000	      0.01000000	      0.07526737	      0.01000000	      0.22484192	      0.01000000	      0.04715928	      0.01000000	      0.04300065	      0.01000000	      0.06892405	      0.01000000	      0.03910700	      0.01000000	      0.12961655	      0.01000000	      0.12675151	      0.01000000	      0.12461836
      0.02477906	     20.00000000	      0.00000000	      0.00000000	      0.25000000	    -17.56515036	     -0.01371665	     -0.00352241	      0.01645708	      0.71613921	      0.00007493	     68.27102664	    -18.42356608	    -10.37353188	     76.61383930	     76.61383930	     -6.03128644	     -3.74406493	      0.00000000	     68.27584743	    -18.53525913	    -10.22528784	     76.61340095	     76.61340095	     -5.39456233	      0.00000000	      0.00000000	    -10.35334746	      0.00999328	      0.01954247	     91.01224187	     -0.08169128	     89.79699926	      0.36466329	      0.10890647	     -0.00000000	      0.00000000	     91.01459708	     -0.08524446	     89.80144712	      0.36866603	      0.10996404	      0.00000000	      0.00000000	     -0.00000000	      0.00000000	      0.00000000	     -0.00000000	    667.15496037	      0.04355222	      0.10749453	      0.19089410	      1.08333783	      0.00131668	   -859.64449209	    -22.95925626	    -51.15074104	   -302.53225270	   -302.53225270	  -1700.02468675	    -58.01224137	      0.00000000	   -859.74011319	    -25.30028805	    -52.71295942	   -304.37298782	   -304.37298782	  -1708.64821143	      0.00000000	      0.00000000	   -813.60637143	     -0.29024303	      0.04022105	    156.92762295	     -7.01836567	     -4.60932371	     19.80217050	      2.47900444	     -0.00000000	      0.00000000	    157.07308746	     -7.23347203	     -4.33329366	     20.04897318	      2.54088775	     -0.00000000	      0.00000000	      0.01000000	      0.01000000	      0.09802128	      0.01000000	      0.01000000	      0.20052816	      0.01000000	      0.01000000	      0.01000000	      0.11520520	      0.01000000	      0.01000000	      0.07126229	      0.01000000	      0.08140054	      0.01000000	      0.04609124	      0.01000000	      0.05278756	      0.01000000	      0.05477099	      0.01000000	      0.04512880	      0.01000000	      0.01000000	      0.01000000	      0.01000000	      0.01000000	      0.01000000	      0.01000000	      0.01000000	      0.01000000	      0.04417350	      0.01000000	      0.01000000	      0.01000000	      0.04664161	      0.01000000	      0.05243787	      0.01000000	      0.02885304	      0.01000000	      0.01000000	      0.06210919	      0.01000000	      0.01000000	      0.07504967	      0.01000000	      0.22452407	      0.01000000	      0.04685496	      0.01000000	      0.04364090	      0.01000000	      0.07056917	      0.01000000	      0.03976267	      0.01000000	      0.12955014	      0.01000000	      0.12669352	      0.01000000	      0.12456027	      0.01000000	      0.01000000	      0.09815885	      0.01000000	      0.01000000	      0.20056949	      0.01000000	      0.01000000	      0.01000000	      0.11522685	      0.01000000	      0.01000000	      0.07176790	      0.01000000	      0.08095857	      0.01000000	      0.04539971	      0.01000000	      0.05256655	      0.01000000	      0.05477397	      0.01000000	      0.04513457	      0.01000000	      0.01000000	      0.01000000	      0.01000000	      0.01000000	      0.01000000	      0.01000000	      0.01000000	      0.01000000	      0.04405271	      0.01000000	      0.01000000	      0.01000000	      0.04816077	      0.01000000	      0.05374480	      0.01000000	      0.02877636	      0.01000000	      0.01000000	      0.06208682	      0.01000000	      0.01000000	      0.07506046	      0.01000000	      0.22455351	      0.01000000	      0.04691445	      0.01000000	      0.04345665	      0.01000000	      0.06957620	      0.01000000	      0.03900969	      0.01000000	      0.12955017	      0.01000000	      0.12669359	      0.01000000	      0.12456030
